<mxfile host="Electron" modified="2023-10-15T16:11:58.280Z" agent="Mozilla/5.0 (X11; Linux x86_64) AppleWebKit/537.36 (KHTML, like Gecko) draw.io/21.8.2 Chrome/114.0.5735.289 Electron/25.8.1 Safari/537.36" etag="eupolDcx5LF4Pbv0h_zL" version="21.8.2" type="device">
  <diagram name="Page-1" id="m5_I9dipFFxXjnZk7kIk">
    <mxGraphModel dx="2045" dy="1795" grid="1" gridSize="10" guides="1" tooltips="1" connect="1" arrows="1" fold="1" page="1" pageScale="1" pageWidth="850" pageHeight="1100" math="0" shadow="0">
      <root>
        <mxCell id="0" />
        <mxCell id="1" parent="0" />
        <mxCell id="5eqABleXk-v-GuFvQu0C-42" value="Слой Raw" style="swimlane;whiteSpace=wrap;html=1;fillColor=#f5f5f5;strokeColor=#666666;rounded=0;glass=0;shadow=0;fontColor=#333333;" parent="1" vertex="1">
          <mxGeometry x="-220" y="-350" width="280" height="1250" as="geometry">
            <mxRectangle x="-160" y="-300" width="140" height="30" as="alternateBounds" />
          </mxGeometry>
        </mxCell>
        <mxCell id="5eqABleXk-v-GuFvQu0C-1" value="Информация о продажах" style="swimlane;fontStyle=0;childLayout=stackLayout;horizontal=1;startSize=26;horizontalStack=0;resizeParent=1;resizeParentMax=0;resizeLast=0;collapsible=1;marginBottom=0;align=center;fontSize=14;fillColor=#e51400;fontColor=#ffffff;strokeColor=#B20000;" parent="5eqABleXk-v-GuFvQu0C-42" vertex="1">
          <mxGeometry x="40" y="60" width="200" height="296" as="geometry" />
        </mxCell>
        <mxCell id="5eqABleXk-v-GuFvQu0C-2" value="id заказа" style="text;strokeColor=none;fillColor=none;spacingLeft=4;spacingRight=4;overflow=hidden;rotatable=0;points=[[0,0.5],[1,0.5]];portConstraint=eastwest;fontSize=12;whiteSpace=wrap;html=1;" parent="5eqABleXk-v-GuFvQu0C-1" vertex="1">
          <mxGeometry y="26" width="200" height="30" as="geometry" />
        </mxCell>
        <mxCell id="5eqABleXk-v-GuFvQu0C-3" value="время продажи" style="text;strokeColor=none;fillColor=none;spacingLeft=4;spacingRight=4;overflow=hidden;rotatable=0;points=[[0,0.5],[1,0.5]];portConstraint=eastwest;fontSize=12;whiteSpace=wrap;html=1;" parent="5eqABleXk-v-GuFvQu0C-1" vertex="1">
          <mxGeometry y="56" width="200" height="30" as="geometry" />
        </mxCell>
        <mxCell id="5eqABleXk-v-GuFvQu0C-5" value="название товара" style="text;strokeColor=none;fillColor=none;spacingLeft=4;spacingRight=4;overflow=hidden;rotatable=0;points=[[0,0.5],[1,0.5]];portConstraint=eastwest;fontSize=12;whiteSpace=wrap;html=1;" parent="5eqABleXk-v-GuFvQu0C-1" vertex="1">
          <mxGeometry y="86" width="200" height="30" as="geometry" />
        </mxCell>
        <mxCell id="5eqABleXk-v-GuFvQu0C-6" value="цена" style="text;strokeColor=none;fillColor=none;spacingLeft=4;spacingRight=4;overflow=hidden;rotatable=0;points=[[0,0.5],[1,0.5]];portConstraint=eastwest;fontSize=12;whiteSpace=wrap;html=1;" parent="5eqABleXk-v-GuFvQu0C-1" vertex="1">
          <mxGeometry y="116" width="200" height="30" as="geometry" />
        </mxCell>
        <mxCell id="5eqABleXk-v-GuFvQu0C-7" value="бренд" style="text;strokeColor=none;fillColor=none;spacingLeft=4;spacingRight=4;overflow=hidden;rotatable=0;points=[[0,0.5],[1,0.5]];portConstraint=eastwest;fontSize=12;whiteSpace=wrap;html=1;" parent="5eqABleXk-v-GuFvQu0C-1" vertex="1">
          <mxGeometry y="146" width="200" height="30" as="geometry" />
        </mxCell>
        <mxCell id="5eqABleXk-v-GuFvQu0C-4" value="модель товара" style="text;strokeColor=none;fillColor=none;spacingLeft=4;spacingRight=4;overflow=hidden;rotatable=0;points=[[0,0.5],[1,0.5]];portConstraint=eastwest;fontSize=12;whiteSpace=wrap;html=1;" parent="5eqABleXk-v-GuFvQu0C-1" vertex="1">
          <mxGeometry y="176" width="200" height="30" as="geometry" />
        </mxCell>
        <mxCell id="5eqABleXk-v-GuFvQu0C-9" value="категория" style="text;strokeColor=none;fillColor=none;spacingLeft=4;spacingRight=4;overflow=hidden;rotatable=0;points=[[0,0.5],[1,0.5]];portConstraint=eastwest;fontSize=12;whiteSpace=wrap;html=1;" parent="5eqABleXk-v-GuFvQu0C-1" vertex="1">
          <mxGeometry y="206" width="200" height="30" as="geometry" />
        </mxCell>
        <mxCell id="5eqABleXk-v-GuFvQu0C-11" value="cookies покупателя" style="text;strokeColor=none;fillColor=none;spacingLeft=4;spacingRight=4;overflow=hidden;rotatable=0;points=[[0,0.5],[1,0.5]];portConstraint=eastwest;fontSize=12;whiteSpace=wrap;html=1;" parent="5eqABleXk-v-GuFvQu0C-1" vertex="1">
          <mxGeometry y="236" width="200" height="30" as="geometry" />
        </mxCell>
        <mxCell id="5eqABleXk-v-GuFvQu0C-12" value="сумма" style="text;strokeColor=none;fillColor=none;spacingLeft=4;spacingRight=4;overflow=hidden;rotatable=0;points=[[0,0.5],[1,0.5]];portConstraint=eastwest;fontSize=12;whiteSpace=wrap;html=1;" parent="5eqABleXk-v-GuFvQu0C-1" vertex="1">
          <mxGeometry y="266" width="200" height="30" as="geometry" />
        </mxCell>
        <mxCell id="5eqABleXk-v-GuFvQu0C-23" value="Информация о промо-акциях" style="swimlane;fontStyle=0;childLayout=stackLayout;horizontal=1;startSize=26;horizontalStack=0;resizeParent=1;resizeParentMax=0;resizeLast=0;collapsible=1;marginBottom=0;align=center;fontSize=14;fillColor=#6d8764;fontColor=#ffffff;strokeColor=#3A5431;" parent="5eqABleXk-v-GuFvQu0C-42" vertex="1">
          <mxGeometry x="40" y="380" width="200" height="176" as="geometry" />
        </mxCell>
        <mxCell id="5eqABleXk-v-GuFvQu0C-24" value="id промо-акции" style="text;strokeColor=none;fillColor=none;spacingLeft=4;spacingRight=4;overflow=hidden;rotatable=0;points=[[0,0.5],[1,0.5]];portConstraint=eastwest;fontSize=12;whiteSpace=wrap;html=1;" parent="5eqABleXk-v-GuFvQu0C-23" vertex="1">
          <mxGeometry y="26" width="200" height="30" as="geometry" />
        </mxCell>
        <mxCell id="5eqABleXk-v-GuFvQu0C-25" value="id товара" style="text;strokeColor=none;fillColor=none;spacingLeft=4;spacingRight=4;overflow=hidden;rotatable=0;points=[[0,0.5],[1,0.5]];portConstraint=eastwest;fontSize=12;whiteSpace=wrap;html=1;" parent="5eqABleXk-v-GuFvQu0C-23" vertex="1">
          <mxGeometry y="56" width="200" height="30" as="geometry" />
        </mxCell>
        <mxCell id="5eqABleXk-v-GuFvQu0C-28" value="дата начала промо" style="text;strokeColor=none;fillColor=none;spacingLeft=4;spacingRight=4;overflow=hidden;rotatable=0;points=[[0,0.5],[1,0.5]];portConstraint=eastwest;fontSize=12;whiteSpace=wrap;html=1;" parent="5eqABleXk-v-GuFvQu0C-23" vertex="1">
          <mxGeometry y="86" width="200" height="30" as="geometry" />
        </mxCell>
        <mxCell id="5eqABleXk-v-GuFvQu0C-30" value="дата окончания промо" style="text;strokeColor=none;fillColor=none;spacingLeft=4;spacingRight=4;overflow=hidden;rotatable=0;points=[[0,0.5],[1,0.5]];portConstraint=eastwest;fontSize=12;whiteSpace=wrap;html=1;" parent="5eqABleXk-v-GuFvQu0C-23" vertex="1">
          <mxGeometry y="116" width="200" height="30" as="geometry" />
        </mxCell>
        <mxCell id="5eqABleXk-v-GuFvQu0C-26" value="размер скидки" style="text;strokeColor=none;fillColor=none;spacingLeft=4;spacingRight=4;overflow=hidden;rotatable=0;points=[[0,0.5],[1,0.5]];portConstraint=eastwest;fontSize=12;whiteSpace=wrap;html=1;" parent="5eqABleXk-v-GuFvQu0C-23" vertex="1">
          <mxGeometry y="146" width="200" height="30" as="geometry" />
        </mxCell>
        <mxCell id="5eqABleXk-v-GuFvQu0C-13" value="Информация о личных&#xa; кабинетах покупателей" style="swimlane;fontStyle=0;childLayout=stackLayout;horizontal=1;startSize=40;horizontalStack=0;resizeParent=1;resizeParentMax=0;resizeLast=0;collapsible=1;marginBottom=0;align=center;fontSize=14;fillColor=#76608a;fontColor=#ffffff;strokeColor=#432D57;" parent="5eqABleXk-v-GuFvQu0C-42" vertex="1">
          <mxGeometry x="40" y="580" width="200" height="250" as="geometry" />
        </mxCell>
        <mxCell id="5eqABleXk-v-GuFvQu0C-14" value="id личного кабинета" style="text;strokeColor=none;fillColor=none;spacingLeft=4;spacingRight=4;overflow=hidden;rotatable=0;points=[[0,0.5],[1,0.5]];portConstraint=eastwest;fontSize=12;whiteSpace=wrap;html=1;" parent="5eqABleXk-v-GuFvQu0C-13" vertex="1">
          <mxGeometry y="40" width="200" height="30" as="geometry" />
        </mxCell>
        <mxCell id="5eqABleXk-v-GuFvQu0C-15" value="cookies покупателя" style="text;strokeColor=none;fillColor=none;spacingLeft=4;spacingRight=4;overflow=hidden;rotatable=0;points=[[0,0.5],[1,0.5]];portConstraint=eastwest;fontSize=12;whiteSpace=wrap;html=1;" parent="5eqABleXk-v-GuFvQu0C-13" vertex="1">
          <mxGeometry y="70" width="200" height="30" as="geometry" />
        </mxCell>
        <mxCell id="5eqABleXk-v-GuFvQu0C-17" value="ФИО" style="text;strokeColor=none;fillColor=none;spacingLeft=4;spacingRight=4;overflow=hidden;rotatable=0;points=[[0,0.5],[1,0.5]];portConstraint=eastwest;fontSize=12;whiteSpace=wrap;html=1;" parent="5eqABleXk-v-GuFvQu0C-13" vertex="1">
          <mxGeometry y="100" width="200" height="30" as="geometry" />
        </mxCell>
        <mxCell id="5eqABleXk-v-GuFvQu0C-16" value="пол" style="text;strokeColor=none;fillColor=none;spacingLeft=4;spacingRight=4;overflow=hidden;rotatable=0;points=[[0,0.5],[1,0.5]];portConstraint=eastwest;fontSize=12;whiteSpace=wrap;html=1;" parent="5eqABleXk-v-GuFvQu0C-13" vertex="1">
          <mxGeometry y="130" width="200" height="30" as="geometry" />
        </mxCell>
        <mxCell id="5eqABleXk-v-GuFvQu0C-19" value="дата рождения" style="text;strokeColor=none;fillColor=none;spacingLeft=4;spacingRight=4;overflow=hidden;rotatable=0;points=[[0,0.5],[1,0.5]];portConstraint=eastwest;fontSize=12;whiteSpace=wrap;html=1;" parent="5eqABleXk-v-GuFvQu0C-13" vertex="1">
          <mxGeometry y="160" width="200" height="30" as="geometry" />
        </mxCell>
        <mxCell id="5eqABleXk-v-GuFvQu0C-20" value="email" style="text;strokeColor=none;fillColor=none;spacingLeft=4;spacingRight=4;overflow=hidden;rotatable=0;points=[[0,0.5],[1,0.5]];portConstraint=eastwest;fontSize=12;whiteSpace=wrap;html=1;" parent="5eqABleXk-v-GuFvQu0C-13" vertex="1">
          <mxGeometry y="190" width="200" height="30" as="geometry" />
        </mxCell>
        <mxCell id="5eqABleXk-v-GuFvQu0C-18" value="телефон" style="text;strokeColor=none;fillColor=none;spacingLeft=4;spacingRight=4;overflow=hidden;rotatable=0;points=[[0,0.5],[1,0.5]];portConstraint=eastwest;fontSize=12;whiteSpace=wrap;html=1;" parent="5eqABleXk-v-GuFvQu0C-13" vertex="1">
          <mxGeometry y="220" width="200" height="30" as="geometry" />
        </mxCell>
        <mxCell id="L7yxnm3-P1NIcVD1ScyZ-81" value="Информация о &#xa;баннерной рекламе" style="swimlane;fontStyle=0;childLayout=stackLayout;horizontal=1;startSize=40;horizontalStack=0;resizeParent=1;resizeParentMax=0;resizeLast=0;collapsible=1;marginBottom=0;align=center;fontSize=14;fillColor=#d80073;fontColor=#ffffff;strokeColor=#A50040;" vertex="1" parent="5eqABleXk-v-GuFvQu0C-42">
          <mxGeometry x="40" y="870" width="200" height="220" as="geometry" />
        </mxCell>
        <mxCell id="L7yxnm3-P1NIcVD1ScyZ-82" value="id баннера" style="text;strokeColor=none;fillColor=none;spacingLeft=4;spacingRight=4;overflow=hidden;rotatable=0;points=[[0,0.5],[1,0.5]];portConstraint=eastwest;fontSize=12;whiteSpace=wrap;html=1;" vertex="1" parent="L7yxnm3-P1NIcVD1ScyZ-81">
          <mxGeometry y="40" width="200" height="30" as="geometry" />
        </mxCell>
        <mxCell id="L7yxnm3-P1NIcVD1ScyZ-83" value="id товара" style="text;strokeColor=none;fillColor=none;spacingLeft=4;spacingRight=4;overflow=hidden;rotatable=0;points=[[0,0.5],[1,0.5]];portConstraint=eastwest;fontSize=12;whiteSpace=wrap;html=1;" vertex="1" parent="L7yxnm3-P1NIcVD1ScyZ-81">
          <mxGeometry y="70" width="200" height="30" as="geometry" />
        </mxCell>
        <mxCell id="L7yxnm3-P1NIcVD1ScyZ-84" value="площадка размещения" style="text;strokeColor=none;fillColor=none;spacingLeft=4;spacingRight=4;overflow=hidden;rotatable=0;points=[[0,0.5],[1,0.5]];portConstraint=eastwest;fontSize=12;whiteSpace=wrap;html=1;" vertex="1" parent="L7yxnm3-P1NIcVD1ScyZ-81">
          <mxGeometry y="100" width="200" height="30" as="geometry" />
        </mxCell>
        <mxCell id="L7yxnm3-P1NIcVD1ScyZ-91" value="cookies пользователя" style="text;strokeColor=none;fillColor=none;spacingLeft=4;spacingRight=4;overflow=hidden;rotatable=0;points=[[0,0.5],[1,0.5]];portConstraint=eastwest;fontSize=12;whiteSpace=wrap;html=1;" vertex="1" parent="L7yxnm3-P1NIcVD1ScyZ-81">
          <mxGeometry y="130" width="200" height="30" as="geometry" />
        </mxCell>
        <mxCell id="L7yxnm3-P1NIcVD1ScyZ-93" value="тип действия (просмотр или клик)" style="text;strokeColor=none;fillColor=none;spacingLeft=4;spacingRight=4;overflow=hidden;rotatable=0;points=[[0,0.5],[1,0.5]];portConstraint=eastwest;fontSize=12;whiteSpace=wrap;html=1;" vertex="1" parent="L7yxnm3-P1NIcVD1ScyZ-81">
          <mxGeometry y="160" width="200" height="30" as="geometry" />
        </mxCell>
        <mxCell id="L7yxnm3-P1NIcVD1ScyZ-94" value="время действия" style="text;strokeColor=none;fillColor=none;spacingLeft=4;spacingRight=4;overflow=hidden;rotatable=0;points=[[0,0.5],[1,0.5]];portConstraint=eastwest;fontSize=12;whiteSpace=wrap;html=1;" vertex="1" parent="L7yxnm3-P1NIcVD1ScyZ-81">
          <mxGeometry y="190" width="200" height="30" as="geometry" />
        </mxCell>
        <mxCell id="5eqABleXk-v-GuFvQu0C-55" value="Слой Core" style="swimlane;fillColor=#ffe6cc;strokeColor=#d79b00;" parent="1" vertex="1">
          <mxGeometry x="130" y="-540" width="760" height="1170" as="geometry">
            <mxRectangle x="200" y="-290" width="100" height="30" as="alternateBounds" />
          </mxGeometry>
        </mxCell>
        <mxCell id="5eqABleXk-v-GuFvQu0C-72" value="Категории" style="swimlane;fontStyle=0;childLayout=stackLayout;horizontal=1;startSize=26;horizontalStack=0;resizeParent=1;resizeParentMax=0;resizeLast=0;collapsible=1;marginBottom=0;align=center;fontSize=14;fillColor=#f8cecc;strokeColor=#b85450;" parent="5eqABleXk-v-GuFvQu0C-55" vertex="1">
          <mxGeometry x="580" y="70" width="160" height="86" as="geometry" />
        </mxCell>
        <mxCell id="5eqABleXk-v-GuFvQu0C-73" value="id_категории" style="text;strokeColor=none;fillColor=none;spacingLeft=4;spacingRight=4;overflow=hidden;rotatable=0;points=[[0,0.5],[1,0.5]];portConstraint=eastwest;fontSize=12;whiteSpace=wrap;html=1;" parent="5eqABleXk-v-GuFvQu0C-72" vertex="1">
          <mxGeometry y="26" width="160" height="30" as="geometry" />
        </mxCell>
        <mxCell id="5eqABleXk-v-GuFvQu0C-76" value="категория" style="text;strokeColor=none;fillColor=none;spacingLeft=4;spacingRight=4;overflow=hidden;rotatable=0;points=[[0,0.5],[1,0.5]];portConstraint=eastwest;fontSize=12;whiteSpace=wrap;html=1;" parent="5eqABleXk-v-GuFvQu0C-72" vertex="1">
          <mxGeometry y="56" width="160" height="30" as="geometry" />
        </mxCell>
        <mxCell id="5eqABleXk-v-GuFvQu0C-82" value="" style="edgeStyle=entityRelationEdgeStyle;fontSize=12;html=1;endArrow=ERoneToMany;rounded=0;" parent="5eqABleXk-v-GuFvQu0C-55" source="5eqABleXk-v-GuFvQu0C-81" target="5eqABleXk-v-GuFvQu0C-73" edge="1">
          <mxGeometry width="100" height="100" relative="1" as="geometry">
            <mxPoint x="140" y="430" as="sourcePoint" />
            <mxPoint x="240" y="330" as="targetPoint" />
          </mxGeometry>
        </mxCell>
        <mxCell id="5eqABleXk-v-GuFvQu0C-84" value="Брэнды" style="swimlane;fontStyle=0;childLayout=stackLayout;horizontal=1;startSize=30;horizontalStack=0;resizeParent=1;resizeParentMax=0;resizeLast=0;collapsible=1;marginBottom=0;whiteSpace=wrap;html=1;fillColor=#f8cecc;strokeColor=#b85450;" parent="5eqABleXk-v-GuFvQu0C-55" vertex="1">
          <mxGeometry x="610" y="353" width="140" height="90" as="geometry" />
        </mxCell>
        <mxCell id="5eqABleXk-v-GuFvQu0C-85" value="id_брэнда" style="text;strokeColor=none;fillColor=none;align=left;verticalAlign=middle;spacingLeft=4;spacingRight=4;overflow=hidden;points=[[0,0.5],[1,0.5]];portConstraint=eastwest;rotatable=0;whiteSpace=wrap;html=1;" parent="5eqABleXk-v-GuFvQu0C-84" vertex="1">
          <mxGeometry y="30" width="140" height="30" as="geometry" />
        </mxCell>
        <mxCell id="5eqABleXk-v-GuFvQu0C-71" value="бренд" style="text;strokeColor=none;fillColor=none;spacingLeft=4;spacingRight=4;overflow=hidden;rotatable=0;points=[[0,0.5],[1,0.5]];portConstraint=eastwest;fontSize=12;whiteSpace=wrap;html=1;" parent="5eqABleXk-v-GuFvQu0C-84" vertex="1">
          <mxGeometry y="60" width="140" height="30" as="geometry" />
        </mxCell>
        <mxCell id="5eqABleXk-v-GuFvQu0C-89" value="" style="edgeStyle=entityRelationEdgeStyle;fontSize=12;html=1;endArrow=ERoneToMany;rounded=0;entryX=0;entryY=0.5;entryDx=0;entryDy=0;" parent="5eqABleXk-v-GuFvQu0C-55" source="5eqABleXk-v-GuFvQu0C-88" target="5eqABleXk-v-GuFvQu0C-85" edge="1">
          <mxGeometry width="100" height="100" relative="1" as="geometry">
            <mxPoint x="40" y="340" as="sourcePoint" />
            <mxPoint x="140" y="240" as="targetPoint" />
          </mxGeometry>
        </mxCell>
        <mxCell id="L7yxnm3-P1NIcVD1ScyZ-21" value="Промо-акции" style="swimlane;fontStyle=0;childLayout=stackLayout;horizontal=1;startSize=26;horizontalStack=0;resizeParent=1;resizeParentMax=0;resizeLast=0;collapsible=1;marginBottom=0;align=center;fontSize=14;fillColor=#f8cecc;strokeColor=#b85450;" vertex="1" parent="5eqABleXk-v-GuFvQu0C-55">
          <mxGeometry x="590" y="190" width="160" height="146" as="geometry" />
        </mxCell>
        <mxCell id="L7yxnm3-P1NIcVD1ScyZ-25" value="id промо-акции" style="text;strokeColor=none;fillColor=none;spacingLeft=4;spacingRight=4;overflow=hidden;rotatable=0;points=[[0,0.5],[1,0.5]];portConstraint=eastwest;fontSize=12;whiteSpace=wrap;html=1;" vertex="1" parent="L7yxnm3-P1NIcVD1ScyZ-21">
          <mxGeometry y="26" width="160" height="30" as="geometry" />
        </mxCell>
        <mxCell id="L7yxnm3-P1NIcVD1ScyZ-30" value="дата начала промо" style="text;strokeColor=none;fillColor=none;spacingLeft=4;spacingRight=4;overflow=hidden;rotatable=0;points=[[0,0.5],[1,0.5]];portConstraint=eastwest;fontSize=12;whiteSpace=wrap;html=1;" vertex="1" parent="L7yxnm3-P1NIcVD1ScyZ-21">
          <mxGeometry y="56" width="160" height="30" as="geometry" />
        </mxCell>
        <mxCell id="L7yxnm3-P1NIcVD1ScyZ-31" value="дата окончания промо" style="text;strokeColor=none;fillColor=none;spacingLeft=4;spacingRight=4;overflow=hidden;rotatable=0;points=[[0,0.5],[1,0.5]];portConstraint=eastwest;fontSize=12;whiteSpace=wrap;html=1;" vertex="1" parent="L7yxnm3-P1NIcVD1ScyZ-21">
          <mxGeometry y="86" width="160" height="30" as="geometry" />
        </mxCell>
        <mxCell id="L7yxnm3-P1NIcVD1ScyZ-34" value="размер скидки" style="text;strokeColor=none;fillColor=none;spacingLeft=4;spacingRight=4;overflow=hidden;rotatable=0;points=[[0,0.5],[1,0.5]];portConstraint=eastwest;fontSize=12;whiteSpace=wrap;html=1;" vertex="1" parent="L7yxnm3-P1NIcVD1ScyZ-21">
          <mxGeometry y="116" width="160" height="30" as="geometry" />
        </mxCell>
        <mxCell id="L7yxnm3-P1NIcVD1ScyZ-27" value="" style="edgeStyle=entityRelationEdgeStyle;fontSize=12;html=1;endArrow=ERoneToMany;rounded=0;" edge="1" parent="5eqABleXk-v-GuFvQu0C-55" source="L7yxnm3-P1NIcVD1ScyZ-26" target="L7yxnm3-P1NIcVD1ScyZ-25">
          <mxGeometry width="100" height="100" relative="1" as="geometry">
            <mxPoint x="420" y="411" as="sourcePoint" />
            <mxPoint x="500" y="445" as="targetPoint" />
          </mxGeometry>
        </mxCell>
        <mxCell id="L7yxnm3-P1NIcVD1ScyZ-1" value="Товары" style="swimlane;fontStyle=0;childLayout=stackLayout;horizontal=1;startSize=26;horizontalStack=0;resizeParent=1;resizeParentMax=0;resizeLast=0;collapsible=1;marginBottom=0;align=center;fontSize=14;fillColor=#fff2cc;strokeColor=#d6b656;" vertex="1" parent="5eqABleXk-v-GuFvQu0C-55">
          <mxGeometry x="360" y="60" width="160" height="296" as="geometry" />
        </mxCell>
        <mxCell id="L7yxnm3-P1NIcVD1ScyZ-66" value="product_key" style="text;strokeColor=none;fillColor=none;spacingLeft=4;spacingRight=4;overflow=hidden;rotatable=0;points=[[0,0.5],[1,0.5]];portConstraint=eastwest;fontSize=12;whiteSpace=wrap;html=1;" vertex="1" parent="L7yxnm3-P1NIcVD1ScyZ-1">
          <mxGeometry y="26" width="160" height="30" as="geometry" />
        </mxCell>
        <mxCell id="L7yxnm3-P1NIcVD1ScyZ-2" value="Id товара" style="text;strokeColor=none;fillColor=none;spacingLeft=4;spacingRight=4;overflow=hidden;rotatable=0;points=[[0,0.5],[1,0.5]];portConstraint=eastwest;fontSize=12;whiteSpace=wrap;html=1;" vertex="1" parent="L7yxnm3-P1NIcVD1ScyZ-1">
          <mxGeometry y="56" width="160" height="30" as="geometry" />
        </mxCell>
        <mxCell id="5eqABleXk-v-GuFvQu0C-65" value="название товара" style="text;strokeColor=none;fillColor=none;spacingLeft=4;spacingRight=4;overflow=hidden;rotatable=0;points=[[0,0.5],[1,0.5]];portConstraint=eastwest;fontSize=12;whiteSpace=wrap;html=1;" parent="L7yxnm3-P1NIcVD1ScyZ-1" vertex="1">
          <mxGeometry y="86" width="160" height="30" as="geometry" />
        </mxCell>
        <mxCell id="5eqABleXk-v-GuFvQu0C-81" value="id_категории" style="text;strokeColor=none;fillColor=none;spacingLeft=4;spacingRight=4;overflow=hidden;rotatable=0;points=[[0,0.5],[1,0.5]];portConstraint=eastwest;fontSize=12;whiteSpace=wrap;html=1;" parent="L7yxnm3-P1NIcVD1ScyZ-1" vertex="1">
          <mxGeometry y="116" width="160" height="30" as="geometry" />
        </mxCell>
        <mxCell id="L7yxnm3-P1NIcVD1ScyZ-26" value="id промо-акции" style="text;strokeColor=none;fillColor=none;spacingLeft=4;spacingRight=4;overflow=hidden;rotatable=0;points=[[0,0.5],[1,0.5]];portConstraint=eastwest;fontSize=12;whiteSpace=wrap;html=1;" vertex="1" parent="L7yxnm3-P1NIcVD1ScyZ-1">
          <mxGeometry y="146" width="160" height="30" as="geometry" />
        </mxCell>
        <mxCell id="5eqABleXk-v-GuFvQu0C-88" value="id_брэнда" style="text;strokeColor=none;fillColor=none;align=left;verticalAlign=middle;spacingLeft=4;spacingRight=4;overflow=hidden;points=[[0,0.5],[1,0.5]];portConstraint=eastwest;rotatable=0;whiteSpace=wrap;html=1;" parent="L7yxnm3-P1NIcVD1ScyZ-1" vertex="1">
          <mxGeometry y="176" width="160" height="30" as="geometry" />
        </mxCell>
        <mxCell id="L7yxnm3-P1NIcVD1ScyZ-4" value="Цена" style="text;strokeColor=none;fillColor=none;spacingLeft=4;spacingRight=4;overflow=hidden;rotatable=0;points=[[0,0.5],[1,0.5]];portConstraint=eastwest;fontSize=12;whiteSpace=wrap;html=1;" vertex="1" parent="L7yxnm3-P1NIcVD1ScyZ-1">
          <mxGeometry y="206" width="160" height="30" as="geometry" />
        </mxCell>
        <mxCell id="L7yxnm3-P1NIcVD1ScyZ-53" value="start_date" style="text;strokeColor=none;fillColor=none;spacingLeft=4;spacingRight=4;overflow=hidden;rotatable=0;points=[[0,0.5],[1,0.5]];portConstraint=eastwest;fontSize=12;whiteSpace=wrap;html=1;" vertex="1" parent="L7yxnm3-P1NIcVD1ScyZ-1">
          <mxGeometry y="236" width="160" height="30" as="geometry" />
        </mxCell>
        <mxCell id="L7yxnm3-P1NIcVD1ScyZ-55" value="end_date" style="text;strokeColor=none;fillColor=none;spacingLeft=4;spacingRight=4;overflow=hidden;rotatable=0;points=[[0,0.5],[1,0.5]];portConstraint=eastwest;fontSize=12;whiteSpace=wrap;html=1;" vertex="1" parent="L7yxnm3-P1NIcVD1ScyZ-1">
          <mxGeometry y="266" width="160" height="30" as="geometry" />
        </mxCell>
        <mxCell id="L7yxnm3-P1NIcVD1ScyZ-67" value="hist_Товары" style="swimlane;fontStyle=0;childLayout=stackLayout;horizontal=1;startSize=26;horizontalStack=0;resizeParent=1;resizeParentMax=0;resizeLast=0;collapsible=1;marginBottom=0;align=center;fontSize=14;fillColor=#fff2cc;strokeColor=#d6b656;" vertex="1" parent="5eqABleXk-v-GuFvQu0C-55">
          <mxGeometry x="440" y="443" width="160" height="326" as="geometry" />
        </mxCell>
        <mxCell id="L7yxnm3-P1NIcVD1ScyZ-68" value="product_key" style="text;strokeColor=none;fillColor=none;spacingLeft=4;spacingRight=4;overflow=hidden;rotatable=0;points=[[0,0.5],[1,0.5]];portConstraint=eastwest;fontSize=12;whiteSpace=wrap;html=1;" vertex="1" parent="L7yxnm3-P1NIcVD1ScyZ-67">
          <mxGeometry y="26" width="160" height="30" as="geometry" />
        </mxCell>
        <mxCell id="L7yxnm3-P1NIcVD1ScyZ-69" value="Id товара" style="text;strokeColor=none;fillColor=none;spacingLeft=4;spacingRight=4;overflow=hidden;rotatable=0;points=[[0,0.5],[1,0.5]];portConstraint=eastwest;fontSize=12;whiteSpace=wrap;html=1;" vertex="1" parent="L7yxnm3-P1NIcVD1ScyZ-67">
          <mxGeometry y="56" width="160" height="30" as="geometry" />
        </mxCell>
        <mxCell id="L7yxnm3-P1NIcVD1ScyZ-70" value="название товара" style="text;strokeColor=none;fillColor=none;spacingLeft=4;spacingRight=4;overflow=hidden;rotatable=0;points=[[0,0.5],[1,0.5]];portConstraint=eastwest;fontSize=12;whiteSpace=wrap;html=1;" vertex="1" parent="L7yxnm3-P1NIcVD1ScyZ-67">
          <mxGeometry y="86" width="160" height="30" as="geometry" />
        </mxCell>
        <mxCell id="L7yxnm3-P1NIcVD1ScyZ-71" value="id_категории" style="text;strokeColor=none;fillColor=none;spacingLeft=4;spacingRight=4;overflow=hidden;rotatable=0;points=[[0,0.5],[1,0.5]];portConstraint=eastwest;fontSize=12;whiteSpace=wrap;html=1;" vertex="1" parent="L7yxnm3-P1NIcVD1ScyZ-67">
          <mxGeometry y="116" width="160" height="30" as="geometry" />
        </mxCell>
        <mxCell id="L7yxnm3-P1NIcVD1ScyZ-72" value="id промо-акции" style="text;strokeColor=none;fillColor=none;spacingLeft=4;spacingRight=4;overflow=hidden;rotatable=0;points=[[0,0.5],[1,0.5]];portConstraint=eastwest;fontSize=12;whiteSpace=wrap;html=1;" vertex="1" parent="L7yxnm3-P1NIcVD1ScyZ-67">
          <mxGeometry y="146" width="160" height="30" as="geometry" />
        </mxCell>
        <mxCell id="L7yxnm3-P1NIcVD1ScyZ-73" value="id_брэнда" style="text;strokeColor=none;fillColor=none;align=left;verticalAlign=middle;spacingLeft=4;spacingRight=4;overflow=hidden;points=[[0,0.5],[1,0.5]];portConstraint=eastwest;rotatable=0;whiteSpace=wrap;html=1;" vertex="1" parent="L7yxnm3-P1NIcVD1ScyZ-67">
          <mxGeometry y="176" width="160" height="30" as="geometry" />
        </mxCell>
        <mxCell id="L7yxnm3-P1NIcVD1ScyZ-74" value="Цена" style="text;strokeColor=none;fillColor=none;spacingLeft=4;spacingRight=4;overflow=hidden;rotatable=0;points=[[0,0.5],[1,0.5]];portConstraint=eastwest;fontSize=12;whiteSpace=wrap;html=1;" vertex="1" parent="L7yxnm3-P1NIcVD1ScyZ-67">
          <mxGeometry y="206" width="160" height="30" as="geometry" />
        </mxCell>
        <mxCell id="L7yxnm3-P1NIcVD1ScyZ-75" value="start_date" style="text;strokeColor=none;fillColor=none;spacingLeft=4;spacingRight=4;overflow=hidden;rotatable=0;points=[[0,0.5],[1,0.5]];portConstraint=eastwest;fontSize=12;whiteSpace=wrap;html=1;" vertex="1" parent="L7yxnm3-P1NIcVD1ScyZ-67">
          <mxGeometry y="236" width="160" height="30" as="geometry" />
        </mxCell>
        <mxCell id="L7yxnm3-P1NIcVD1ScyZ-76" value="end_date" style="text;strokeColor=none;fillColor=none;spacingLeft=4;spacingRight=4;overflow=hidden;rotatable=0;points=[[0,0.5],[1,0.5]];portConstraint=eastwest;fontSize=12;whiteSpace=wrap;html=1;" vertex="1" parent="L7yxnm3-P1NIcVD1ScyZ-67">
          <mxGeometry y="266" width="160" height="30" as="geometry" />
        </mxCell>
        <mxCell id="L7yxnm3-P1NIcVD1ScyZ-77" value="active_flag" style="text;strokeColor=none;fillColor=none;spacingLeft=4;spacingRight=4;overflow=hidden;rotatable=0;points=[[0,0.5],[1,0.5]];portConstraint=eastwest;fontSize=12;whiteSpace=wrap;html=1;" vertex="1" parent="L7yxnm3-P1NIcVD1ScyZ-67">
          <mxGeometry y="296" width="160" height="30" as="geometry" />
        </mxCell>
        <mxCell id="5eqABleXk-v-GuFvQu0C-60" value="fct_Продажи" style="swimlane;fontStyle=0;childLayout=stackLayout;horizontal=1;startSize=26;horizontalStack=0;resizeParent=1;resizeParentMax=0;resizeLast=0;collapsible=1;marginBottom=0;align=center;fontSize=14;fillColor=#d5e8d4;strokeColor=#82b366;" parent="5eqABleXk-v-GuFvQu0C-55" vertex="1">
          <mxGeometry x="50" y="60" width="160" height="236" as="geometry" />
        </mxCell>
        <mxCell id="5eqABleXk-v-GuFvQu0C-90" value="id заказа" style="text;strokeColor=none;fillColor=none;spacingLeft=4;spacingRight=4;overflow=hidden;rotatable=0;points=[[0,0.5],[1,0.5]];portConstraint=eastwest;fontSize=12;whiteSpace=wrap;html=1;" parent="5eqABleXk-v-GuFvQu0C-60" vertex="1">
          <mxGeometry y="26" width="160" height="30" as="geometry" />
        </mxCell>
        <mxCell id="5eqABleXk-v-GuFvQu0C-70" value="модель товара" style="text;strokeColor=none;fillColor=none;spacingLeft=4;spacingRight=4;overflow=hidden;rotatable=0;points=[[0,0.5],[1,0.5]];portConstraint=eastwest;fontSize=12;whiteSpace=wrap;html=1;" parent="5eqABleXk-v-GuFvQu0C-60" vertex="1">
          <mxGeometry y="56" width="160" height="30" as="geometry" />
        </mxCell>
        <mxCell id="L7yxnm3-P1NIcVD1ScyZ-5" value="Id товара" style="text;strokeColor=none;fillColor=none;spacingLeft=4;spacingRight=4;overflow=hidden;rotatable=0;points=[[0,0.5],[1,0.5]];portConstraint=eastwest;fontSize=12;whiteSpace=wrap;html=1;" vertex="1" parent="5eqABleXk-v-GuFvQu0C-60">
          <mxGeometry y="86" width="160" height="30" as="geometry" />
        </mxCell>
        <mxCell id="L7yxnm3-P1NIcVD1ScyZ-121" value="id cookies" style="text;strokeColor=none;fillColor=none;spacingLeft=4;spacingRight=4;overflow=hidden;rotatable=0;points=[[0,0.5],[1,0.5]];portConstraint=eastwest;fontSize=12;whiteSpace=wrap;html=1;" vertex="1" parent="5eqABleXk-v-GuFvQu0C-60">
          <mxGeometry y="116" width="160" height="30" as="geometry" />
        </mxCell>
        <mxCell id="5eqABleXk-v-GuFvQu0C-93" value="время продажи" style="text;strokeColor=none;fillColor=none;spacingLeft=4;spacingRight=4;overflow=hidden;rotatable=0;points=[[0,0.5],[1,0.5]];portConstraint=eastwest;fontSize=12;whiteSpace=wrap;html=1;" parent="5eqABleXk-v-GuFvQu0C-60" vertex="1">
          <mxGeometry y="146" width="160" height="30" as="geometry" />
        </mxCell>
        <mxCell id="5eqABleXk-v-GuFvQu0C-62" value="id_цены" style="text;strokeColor=none;fillColor=none;spacingLeft=4;spacingRight=4;overflow=hidden;rotatable=0;points=[[0,0.5],[1,0.5]];portConstraint=eastwest;fontSize=12;whiteSpace=wrap;html=1;" parent="5eqABleXk-v-GuFvQu0C-60" vertex="1">
          <mxGeometry y="176" width="160" height="30" as="geometry" />
        </mxCell>
        <mxCell id="5eqABleXk-v-GuFvQu0C-63" value="Сумма" style="text;strokeColor=none;fillColor=none;spacingLeft=4;spacingRight=4;overflow=hidden;rotatable=0;points=[[0,0.5],[1,0.5]];portConstraint=eastwest;fontSize=12;whiteSpace=wrap;html=1;" parent="5eqABleXk-v-GuFvQu0C-60" vertex="1">
          <mxGeometry y="206" width="160" height="30" as="geometry" />
        </mxCell>
        <mxCell id="L7yxnm3-P1NIcVD1ScyZ-6" value="" style="edgeStyle=entityRelationEdgeStyle;fontSize=12;html=1;endArrow=ERmany;rounded=0;" edge="1" parent="5eqABleXk-v-GuFvQu0C-55" source="L7yxnm3-P1NIcVD1ScyZ-66" target="L7yxnm3-P1NIcVD1ScyZ-5">
          <mxGeometry width="100" height="100" relative="1" as="geometry">
            <mxPoint x="230" y="290" as="sourcePoint" />
            <mxPoint x="330" y="190" as="targetPoint" />
          </mxGeometry>
        </mxCell>
        <mxCell id="L7yxnm3-P1NIcVD1ScyZ-80" value="" style="edgeStyle=entityRelationEdgeStyle;fontSize=12;html=1;endArrow=ERmany;rounded=0;exitX=-0.024;exitY=0.415;exitDx=0;exitDy=0;exitPerimeter=0;" edge="1" parent="5eqABleXk-v-GuFvQu0C-55" source="L7yxnm3-P1NIcVD1ScyZ-68" target="L7yxnm3-P1NIcVD1ScyZ-5">
          <mxGeometry width="100" height="100" relative="1" as="geometry">
            <mxPoint x="350" y="111" as="sourcePoint" />
            <mxPoint x="275" y="327" as="targetPoint" />
          </mxGeometry>
        </mxCell>
        <mxCell id="5eqABleXk-v-GuFvQu0C-77" value="" style="edgeStyle=entityRelationEdgeStyle;fontSize=12;html=1;endArrow=none;rounded=0;exitX=1;exitY=0.5;exitDx=0;exitDy=0;dashed=1;endFill=0;strokeColor=#e84c3b;" parent="5eqABleXk-v-GuFvQu0C-55" source="5eqABleXk-v-GuFvQu0C-60" target="5eqABleXk-v-GuFvQu0C-65" edge="1">
          <mxGeometry width="100" height="100" relative="1" as="geometry">
            <mxPoint x="-50" y="520" as="sourcePoint" />
            <mxPoint x="50" y="420" as="targetPoint" />
          </mxGeometry>
        </mxCell>
        <mxCell id="5eqABleXk-v-GuFvQu0C-80" value="" style="edgeStyle=entityRelationEdgeStyle;fontSize=12;html=1;endArrow=none;rounded=0;dashed=1;endFill=0;strokeColor=#e84c3b;" parent="5eqABleXk-v-GuFvQu0C-55" source="5eqABleXk-v-GuFvQu0C-60" target="5eqABleXk-v-GuFvQu0C-76" edge="1">
          <mxGeometry width="100" height="100" relative="1" as="geometry">
            <mxPoint x="-150" y="311" as="sourcePoint" />
            <mxPoint x="-30" y="221" as="targetPoint" />
          </mxGeometry>
        </mxCell>
        <mxCell id="L7yxnm3-P1NIcVD1ScyZ-95" value="Баннеры" style="swimlane;fontStyle=0;childLayout=stackLayout;horizontal=1;startSize=26;horizontalStack=0;resizeParent=1;resizeParentMax=0;resizeLast=0;collapsible=1;marginBottom=0;align=center;fontSize=14;fillColor=#d5e8d4;strokeColor=#82b366;" vertex="1" parent="5eqABleXk-v-GuFvQu0C-55">
          <mxGeometry x="260" y="780" width="160" height="206" as="geometry" />
        </mxCell>
        <mxCell id="L7yxnm3-P1NIcVD1ScyZ-99" value="id баннера" style="text;strokeColor=none;fillColor=none;spacingLeft=4;spacingRight=4;overflow=hidden;rotatable=0;points=[[0,0.5],[1,0.5]];portConstraint=eastwest;fontSize=12;whiteSpace=wrap;html=1;" vertex="1" parent="L7yxnm3-P1NIcVD1ScyZ-95">
          <mxGeometry y="26" width="160" height="30" as="geometry" />
        </mxCell>
        <mxCell id="L7yxnm3-P1NIcVD1ScyZ-100" value="id товара" style="text;strokeColor=none;fillColor=none;spacingLeft=4;spacingRight=4;overflow=hidden;rotatable=0;points=[[0,0.5],[1,0.5]];portConstraint=eastwest;fontSize=12;whiteSpace=wrap;html=1;" vertex="1" parent="L7yxnm3-P1NIcVD1ScyZ-95">
          <mxGeometry y="56" width="160" height="30" as="geometry" />
        </mxCell>
        <mxCell id="L7yxnm3-P1NIcVD1ScyZ-115" value="Площадка" style="text;strokeColor=none;fillColor=none;spacingLeft=4;spacingRight=4;overflow=hidden;rotatable=0;points=[[0,0.5],[1,0.5]];portConstraint=eastwest;fontSize=12;whiteSpace=wrap;html=1;" vertex="1" parent="L7yxnm3-P1NIcVD1ScyZ-95">
          <mxGeometry y="86" width="160" height="30" as="geometry" />
        </mxCell>
        <mxCell id="L7yxnm3-P1NIcVD1ScyZ-127" value="id_cookies" style="text;strokeColor=none;fillColor=none;spacingLeft=4;spacingRight=4;overflow=hidden;rotatable=0;points=[[0,0.5],[1,0.5]];portConstraint=eastwest;fontSize=12;whiteSpace=wrap;html=1;" vertex="1" parent="L7yxnm3-P1NIcVD1ScyZ-95">
          <mxGeometry y="116" width="160" height="30" as="geometry" />
        </mxCell>
        <mxCell id="L7yxnm3-P1NIcVD1ScyZ-96" value="Действие" style="text;strokeColor=none;fillColor=none;spacingLeft=4;spacingRight=4;overflow=hidden;rotatable=0;points=[[0,0.5],[1,0.5]];portConstraint=eastwest;fontSize=12;whiteSpace=wrap;html=1;" vertex="1" parent="L7yxnm3-P1NIcVD1ScyZ-95">
          <mxGeometry y="146" width="160" height="30" as="geometry" />
        </mxCell>
        <mxCell id="L7yxnm3-P1NIcVD1ScyZ-97" value="Время действия" style="text;strokeColor=none;fillColor=none;spacingLeft=4;spacingRight=4;overflow=hidden;rotatable=0;points=[[0,0.5],[1,0.5]];portConstraint=eastwest;fontSize=12;whiteSpace=wrap;html=1;" vertex="1" parent="L7yxnm3-P1NIcVD1ScyZ-95">
          <mxGeometry y="176" width="160" height="30" as="geometry" />
        </mxCell>
        <mxCell id="L7yxnm3-P1NIcVD1ScyZ-108" value="" style="edgeStyle=entityRelationEdgeStyle;fontSize=12;html=1;endArrow=ERmany;rounded=0;exitX=0;exitY=0.5;exitDx=0;exitDy=0;" edge="1" parent="5eqABleXk-v-GuFvQu0C-55" source="L7yxnm3-P1NIcVD1ScyZ-2" target="L7yxnm3-P1NIcVD1ScyZ-100">
          <mxGeometry width="100" height="100" relative="1" as="geometry">
            <mxPoint x="446" y="491" as="sourcePoint" />
            <mxPoint x="660" y="550" as="targetPoint" />
          </mxGeometry>
        </mxCell>
        <mxCell id="L7yxnm3-P1NIcVD1ScyZ-109" value="" style="edgeStyle=entityRelationEdgeStyle;fontSize=12;html=1;endArrow=ERmany;rounded=0;exitX=1;exitY=0.5;exitDx=0;exitDy=0;" edge="1" parent="5eqABleXk-v-GuFvQu0C-55" source="L7yxnm3-P1NIcVD1ScyZ-69" target="L7yxnm3-P1NIcVD1ScyZ-100">
          <mxGeometry width="100" height="100" relative="1" as="geometry">
            <mxPoint x="490" y="600" as="sourcePoint" />
            <mxPoint x="590" y="500" as="targetPoint" />
          </mxGeometry>
        </mxCell>
        <mxCell id="L7yxnm3-P1NIcVD1ScyZ-122" value="" style="edgeStyle=entityRelationEdgeStyle;fontSize=12;html=1;endArrow=ERone;endFill=1;rounded=0;" edge="1" parent="5eqABleXk-v-GuFvQu0C-55" source="L7yxnm3-P1NIcVD1ScyZ-121" target="L7yxnm3-P1NIcVD1ScyZ-16">
          <mxGeometry width="100" height="100" relative="1" as="geometry">
            <mxPoint x="130" y="450" as="sourcePoint" />
            <mxPoint x="220" y="320" as="targetPoint" />
          </mxGeometry>
        </mxCell>
        <mxCell id="L7yxnm3-P1NIcVD1ScyZ-15" value="Cookies" style="swimlane;fontStyle=0;childLayout=stackLayout;horizontal=1;startSize=26;horizontalStack=0;resizeParent=1;resizeParentMax=0;resizeLast=0;collapsible=1;marginBottom=0;align=center;fontSize=14;fillColor=#fff2cc;strokeColor=#d6b656;" vertex="1" parent="5eqABleXk-v-GuFvQu0C-55">
          <mxGeometry x="80" y="350" width="160" height="130" as="geometry" />
        </mxCell>
        <mxCell id="L7yxnm3-P1NIcVD1ScyZ-16" value="id_cookies" style="text;strokeColor=none;fillColor=none;spacingLeft=4;spacingRight=4;overflow=hidden;rotatable=0;points=[[0,0.5],[1,0.5]];portConstraint=eastwest;fontSize=12;whiteSpace=wrap;html=1;" vertex="1" parent="L7yxnm3-P1NIcVD1ScyZ-15">
          <mxGeometry y="26" width="160" height="30" as="geometry" />
        </mxCell>
        <mxCell id="L7yxnm3-P1NIcVD1ScyZ-17" value="user_id" style="text;strokeColor=none;fillColor=none;spacingLeft=4;spacingRight=4;overflow=hidden;rotatable=0;points=[[0,0.5],[1,0.5]];portConstraint=eastwest;fontSize=12;whiteSpace=wrap;html=1;" vertex="1" parent="L7yxnm3-P1NIcVD1ScyZ-15">
          <mxGeometry y="56" width="160" height="30" as="geometry" />
        </mxCell>
        <mxCell id="L7yxnm3-P1NIcVD1ScyZ-18" value="еще какая-то информация из cookies" style="text;strokeColor=none;fillColor=none;spacingLeft=4;spacingRight=4;overflow=hidden;rotatable=0;points=[[0,0.5],[1,0.5]];portConstraint=eastwest;fontSize=12;whiteSpace=wrap;html=1;" vertex="1" parent="L7yxnm3-P1NIcVD1ScyZ-15">
          <mxGeometry y="86" width="160" height="44" as="geometry" />
        </mxCell>
        <mxCell id="L7yxnm3-P1NIcVD1ScyZ-129" value="" style="edgeStyle=entityRelationEdgeStyle;fontSize=12;html=1;endArrow=ERone;endFill=1;rounded=0;entryX=1;entryY=0.5;entryDx=0;entryDy=0;exitX=1;exitY=0.5;exitDx=0;exitDy=0;" edge="1" parent="5eqABleXk-v-GuFvQu0C-55" source="L7yxnm3-P1NIcVD1ScyZ-127" target="L7yxnm3-P1NIcVD1ScyZ-16">
          <mxGeometry width="100" height="100" relative="1" as="geometry">
            <mxPoint x="340" y="700" as="sourcePoint" />
            <mxPoint x="250" y="401" as="targetPoint" />
          </mxGeometry>
        </mxCell>
        <mxCell id="5eqABleXk-v-GuFvQu0C-56" value="Data Marts" style="swimlane;fillColor=#d5e8d4;strokeColor=#82b366;" parent="1" vertex="1">
          <mxGeometry x="920" y="-352" width="370" height="802" as="geometry" />
        </mxCell>
        <mxCell id="5eqABleXk-v-GuFvQu0C-31" value="витрина" style="swimlane;fontStyle=0;childLayout=stackLayout;horizontal=1;startSize=26;horizontalStack=0;resizeParent=1;resizeParentMax=0;resizeLast=0;collapsible=1;marginBottom=0;align=center;fontSize=14;fillColor=#d5e8d4;strokeColor=#82b366;" parent="5eqABleXk-v-GuFvQu0C-56" vertex="1">
          <mxGeometry x="30" y="105" width="330" height="520" as="geometry" />
        </mxCell>
        <mxCell id="5eqABleXk-v-GuFvQu0C-32" value="id личного кабинета" style="text;strokeColor=none;fillColor=none;spacingLeft=4;spacingRight=4;overflow=hidden;rotatable=0;points=[[0,0.5],[1,0.5]];portConstraint=eastwest;fontSize=12;whiteSpace=wrap;html=1;" parent="5eqABleXk-v-GuFvQu0C-31" vertex="1">
          <mxGeometry y="26" width="330" height="30" as="geometry" />
        </mxCell>
        <mxCell id="5eqABleXk-v-GuFvQu0C-33" value="Пол" style="text;strokeColor=none;fillColor=none;spacingLeft=4;spacingRight=4;overflow=hidden;rotatable=0;points=[[0,0.5],[1,0.5]];portConstraint=eastwest;fontSize=12;whiteSpace=wrap;html=1;" parent="5eqABleXk-v-GuFvQu0C-31" vertex="1">
          <mxGeometry y="56" width="330" height="30" as="geometry" />
        </mxCell>
        <mxCell id="5eqABleXk-v-GuFvQu0C-35" value="Категория возраста" style="text;strokeColor=none;fillColor=none;spacingLeft=4;spacingRight=4;overflow=hidden;rotatable=0;points=[[0,0.5],[1,0.5]];portConstraint=eastwest;fontSize=12;whiteSpace=wrap;html=1;" parent="5eqABleXk-v-GuFvQu0C-31" vertex="1">
          <mxGeometry y="86" width="330" height="30" as="geometry" />
        </mxCell>
        <mxCell id="5eqABleXk-v-GuFvQu0C-38" value="Электронная почта" style="text;strokeColor=none;fillColor=none;spacingLeft=4;spacingRight=4;overflow=hidden;rotatable=0;points=[[0,0.5],[1,0.5]];portConstraint=eastwest;fontSize=12;whiteSpace=wrap;html=1;" parent="5eqABleXk-v-GuFvQu0C-31" vertex="1">
          <mxGeometry y="116" width="330" height="30" as="geometry" />
        </mxCell>
        <mxCell id="5eqABleXk-v-GuFvQu0C-39" value="Телефон" style="text;strokeColor=none;fillColor=none;spacingLeft=4;spacingRight=4;overflow=hidden;rotatable=0;points=[[0,0.5],[1,0.5]];portConstraint=eastwest;fontSize=12;whiteSpace=wrap;html=1;" parent="5eqABleXk-v-GuFvQu0C-31" vertex="1">
          <mxGeometry y="146" width="330" height="30" as="geometry" />
        </mxCell>
        <mxCell id="5eqABleXk-v-GuFvQu0C-37" value="Товар, который чаще всего покупал клиент за последний месяц" style="text;strokeColor=none;fillColor=none;spacingLeft=4;spacingRight=4;overflow=hidden;rotatable=0;points=[[0,0.5],[1,0.5]];portConstraint=eastwest;fontSize=12;whiteSpace=wrap;html=1;" parent="5eqABleXk-v-GuFvQu0C-31" vertex="1">
          <mxGeometry y="176" width="330" height="34" as="geometry" />
        </mxCell>
        <mxCell id="5eqABleXk-v-GuFvQu0C-36" value="Бренд и категория товаров, которые чаще всего покупал клиент" style="text;strokeColor=none;fillColor=none;spacingLeft=4;spacingRight=4;overflow=hidden;rotatable=0;points=[[0,0.5],[1,0.5]];portConstraint=eastwest;fontSize=12;whiteSpace=wrap;html=1;" parent="5eqABleXk-v-GuFvQu0C-31" vertex="1">
          <mxGeometry y="210" width="330" height="40" as="geometry" />
        </mxCell>
        <mxCell id="5eqABleXk-v-GuFvQu0C-34" value="Сумма, потраченная клиентом за месяц" style="text;strokeColor=none;fillColor=none;spacingLeft=4;spacingRight=4;overflow=hidden;rotatable=0;points=[[0,0.5],[1,0.5]];portConstraint=eastwest;fontSize=12;whiteSpace=wrap;html=1;" parent="5eqABleXk-v-GuFvQu0C-31" vertex="1">
          <mxGeometry y="250" width="330" height="30" as="geometry" />
        </mxCell>
        <mxCell id="5eqABleXk-v-GuFvQu0C-40" value="Количество товаров, купленных со скидкой" style="text;strokeColor=none;fillColor=none;spacingLeft=4;spacingRight=4;overflow=hidden;rotatable=0;points=[[0,0.5],[1,0.5]];portConstraint=eastwest;fontSize=12;whiteSpace=wrap;html=1;" parent="5eqABleXk-v-GuFvQu0C-31" vertex="1">
          <mxGeometry y="280" width="330" height="30" as="geometry" />
        </mxCell>
        <mxCell id="L7yxnm3-P1NIcVD1ScyZ-85" value="Количество просмотренных баннеров" style="text;strokeColor=none;fillColor=none;spacingLeft=4;spacingRight=4;overflow=hidden;rotatable=0;points=[[0,0.5],[1,0.5]];portConstraint=eastwest;fontSize=12;whiteSpace=wrap;html=1;" vertex="1" parent="5eqABleXk-v-GuFvQu0C-31">
          <mxGeometry y="310" width="330" height="30" as="geometry" />
        </mxCell>
        <mxCell id="L7yxnm3-P1NIcVD1ScyZ-86" value="Количество кликов на баннеры" style="text;strokeColor=none;fillColor=none;spacingLeft=4;spacingRight=4;overflow=hidden;rotatable=0;points=[[0,0.5],[1,0.5]];portConstraint=eastwest;fontSize=12;whiteSpace=wrap;html=1;" vertex="1" parent="5eqABleXk-v-GuFvQu0C-31">
          <mxGeometry y="340" width="330" height="30" as="geometry" />
        </mxCell>
        <mxCell id="L7yxnm3-P1NIcVD1ScyZ-87" value="Средний CTR (отношение кликов к просмотрам) за месяц" style="text;strokeColor=none;fillColor=none;spacingLeft=4;spacingRight=4;overflow=hidden;rotatable=0;points=[[0,0.5],[1,0.5]];portConstraint=eastwest;fontSize=12;whiteSpace=wrap;html=1;" vertex="1" parent="5eqABleXk-v-GuFvQu0C-31">
          <mxGeometry y="370" width="330" height="50" as="geometry" />
        </mxCell>
        <mxCell id="L7yxnm3-P1NIcVD1ScyZ-88" value="Категория товаров, на которые клиенты чаще всего кликают" style="text;strokeColor=none;fillColor=none;spacingLeft=4;spacingRight=4;overflow=hidden;rotatable=0;points=[[0,0.5],[1,0.5]];portConstraint=eastwest;fontSize=12;whiteSpace=wrap;html=1;" vertex="1" parent="5eqABleXk-v-GuFvQu0C-31">
          <mxGeometry y="420" width="330" height="40" as="geometry" />
        </mxCell>
        <mxCell id="L7yxnm3-P1NIcVD1ScyZ-90" value="Активность клиентов в выходные или будние дни" style="text;strokeColor=none;fillColor=none;spacingLeft=4;spacingRight=4;overflow=hidden;rotatable=0;points=[[0,0.5],[1,0.5]];portConstraint=eastwest;fontSize=12;whiteSpace=wrap;html=1;" vertex="1" parent="5eqABleXk-v-GuFvQu0C-31">
          <mxGeometry y="460" width="330" height="30" as="geometry" />
        </mxCell>
        <mxCell id="L7yxnm3-P1NIcVD1ScyZ-89" value="Трёхчасовой интервал с максимальной активностью" style="text;strokeColor=none;fillColor=none;spacingLeft=4;spacingRight=4;overflow=hidden;rotatable=0;points=[[0,0.5],[1,0.5]];portConstraint=eastwest;fontSize=12;whiteSpace=wrap;html=1;" vertex="1" parent="5eqABleXk-v-GuFvQu0C-31">
          <mxGeometry y="490" width="330" height="30" as="geometry" />
        </mxCell>
        <mxCell id="5eqABleXk-v-GuFvQu0C-79" value="" style="edgeStyle=entityRelationEdgeStyle;fontSize=12;html=1;endArrow=none;rounded=0;endFill=0;dashed=1;strokeColor=#e84c3b;" parent="1" source="5eqABleXk-v-GuFvQu0C-4" target="5eqABleXk-v-GuFvQu0C-70" edge="1">
          <mxGeometry width="100" height="100" relative="1" as="geometry">
            <mxPoint x="90" y="-69" as="sourcePoint" />
            <mxPoint x="210" y="-159" as="targetPoint" />
          </mxGeometry>
        </mxCell>
        <mxCell id="5eqABleXk-v-GuFvQu0C-91" value="" style="edgeStyle=entityRelationEdgeStyle;fontSize=12;html=1;endArrow=none;endFill=0;rounded=0;dashed=1;strokeColor=#e84c3b;" parent="1" source="5eqABleXk-v-GuFvQu0C-2" target="5eqABleXk-v-GuFvQu0C-90" edge="1">
          <mxGeometry width="100" height="100" relative="1" as="geometry">
            <mxPoint x="100" y="120" as="sourcePoint" />
            <mxPoint x="200" y="20" as="targetPoint" />
          </mxGeometry>
        </mxCell>
        <mxCell id="5eqABleXk-v-GuFvQu0C-94" value="" style="edgeStyle=entityRelationEdgeStyle;fontSize=12;html=1;endArrow=none;rounded=0;exitX=0.995;exitY=0.233;exitDx=0;exitDy=0;exitPerimeter=0;dashed=1;endFill=0;strokeColor=#e84c3b;" parent="1" source="5eqABleXk-v-GuFvQu0C-3" target="5eqABleXk-v-GuFvQu0C-93" edge="1">
          <mxGeometry width="100" height="100" relative="1" as="geometry">
            <mxPoint x="90" y="-39" as="sourcePoint" />
            <mxPoint x="230" y="-129" as="targetPoint" />
          </mxGeometry>
        </mxCell>
        <mxCell id="L7yxnm3-P1NIcVD1ScyZ-8" value="" style="edgeStyle=entityRelationEdgeStyle;fontSize=12;html=1;endArrow=none;rounded=0;endFill=0;dashed=1;strokeColor=#e84c3b;" edge="1" parent="1" source="5eqABleXk-v-GuFvQu0C-6" target="L7yxnm3-P1NIcVD1ScyZ-4">
          <mxGeometry width="100" height="100" relative="1" as="geometry">
            <mxPoint x="90" y="-129" as="sourcePoint" />
            <mxPoint x="460" y="21" as="targetPoint" />
          </mxGeometry>
        </mxCell>
        <mxCell id="L7yxnm3-P1NIcVD1ScyZ-9" value="" style="edgeStyle=entityRelationEdgeStyle;fontSize=12;html=1;endArrow=none;rounded=0;entryX=0;entryY=0.5;entryDx=0;entryDy=0;endFill=0;dashed=1;strokeColor=#e84c3b;" edge="1" parent="1" source="5eqABleXk-v-GuFvQu0C-7" target="5eqABleXk-v-GuFvQu0C-71">
          <mxGeometry width="100" height="100" relative="1" as="geometry">
            <mxPoint x="90" y="-9" as="sourcePoint" />
            <mxPoint x="240" y="141" as="targetPoint" />
          </mxGeometry>
        </mxCell>
        <mxCell id="L7yxnm3-P1NIcVD1ScyZ-10" value="" style="edgeStyle=entityRelationEdgeStyle;fontSize=12;html=1;endArrow=none;rounded=0;dashed=1;endFill=0;strokeColor=#e84c3b;" edge="1" parent="1" source="5eqABleXk-v-GuFvQu0C-12" target="5eqABleXk-v-GuFvQu0C-63">
          <mxGeometry width="100" height="100" relative="1" as="geometry">
            <mxPoint x="90" y="-9" as="sourcePoint" />
            <mxPoint x="240" y="141" as="targetPoint" />
          </mxGeometry>
        </mxCell>
        <mxCell id="L7yxnm3-P1NIcVD1ScyZ-20" value="" style="edgeStyle=entityRelationEdgeStyle;fontSize=12;html=1;endArrow=none;rounded=0;dashed=1;endFill=0;strokeColor=#e84c3b;" edge="1" parent="1" source="5eqABleXk-v-GuFvQu0C-11" target="L7yxnm3-P1NIcVD1ScyZ-18">
          <mxGeometry width="100" height="100" relative="1" as="geometry">
            <mxPoint x="90" y="51" as="sourcePoint" />
            <mxPoint x="260" y="-69" as="targetPoint" />
          </mxGeometry>
        </mxCell>
        <mxCell id="L7yxnm3-P1NIcVD1ScyZ-28" value="" style="edgeStyle=entityRelationEdgeStyle;fontSize=12;html=1;endArrow=none;rounded=0;dashed=1;endFill=0;strokeColor=#6f8367;" edge="1" parent="1" source="5eqABleXk-v-GuFvQu0C-24" target="L7yxnm3-P1NIcVD1ScyZ-25">
          <mxGeometry width="100" height="100" relative="1" as="geometry">
            <mxPoint x="90" y="51" as="sourcePoint" />
            <mxPoint x="270" y="-89" as="targetPoint" />
          </mxGeometry>
        </mxCell>
        <mxCell id="L7yxnm3-P1NIcVD1ScyZ-29" value="" style="edgeStyle=entityRelationEdgeStyle;fontSize=12;html=1;endArrow=none;rounded=0;dashed=1;endFill=0;strokeColor=#6f8367;" edge="1" parent="1" source="5eqABleXk-v-GuFvQu0C-25" target="L7yxnm3-P1NIcVD1ScyZ-2">
          <mxGeometry width="100" height="100" relative="1" as="geometry">
            <mxPoint x="90" y="131" as="sourcePoint" />
            <mxPoint x="710" y="-159" as="targetPoint" />
          </mxGeometry>
        </mxCell>
        <mxCell id="L7yxnm3-P1NIcVD1ScyZ-32" value="" style="edgeStyle=entityRelationEdgeStyle;fontSize=12;html=1;endArrow=none;rounded=0;dashed=1;endFill=0;entryX=0.002;entryY=0.771;entryDx=0;entryDy=0;entryPerimeter=0;strokeColor=#6f8367;" edge="1" parent="1" source="L7yxnm3-P1NIcVD1ScyZ-11" target="L7yxnm3-P1NIcVD1ScyZ-30">
          <mxGeometry width="100" height="100" relative="1" as="geometry">
            <mxPoint x="90" y="161" as="sourcePoint" />
            <mxPoint x="570" y="-220" as="targetPoint" />
          </mxGeometry>
        </mxCell>
        <mxCell id="L7yxnm3-P1NIcVD1ScyZ-33" value="" style="edgeStyle=entityRelationEdgeStyle;fontSize=12;html=1;endArrow=none;rounded=0;dashed=1;endFill=0;strokeColor=#6f8367;" edge="1" parent="1" source="5eqABleXk-v-GuFvQu0C-30" target="L7yxnm3-P1NIcVD1ScyZ-31">
          <mxGeometry width="100" height="100" relative="1" as="geometry">
            <mxPoint x="100" y="171" as="sourcePoint" />
            <mxPoint x="480" y="-49" as="targetPoint" />
          </mxGeometry>
        </mxCell>
        <mxCell id="L7yxnm3-P1NIcVD1ScyZ-35" value="" style="edgeStyle=entityRelationEdgeStyle;fontSize=12;html=1;endArrow=none;rounded=0;dashed=1;endFill=0;strokeColor=#6f8367;" edge="1" parent="1" source="5eqABleXk-v-GuFvQu0C-26" target="L7yxnm3-P1NIcVD1ScyZ-34">
          <mxGeometry width="100" height="100" relative="1" as="geometry">
            <mxPoint x="90" y="221" as="sourcePoint" />
            <mxPoint x="780" y="61" as="targetPoint" />
          </mxGeometry>
        </mxCell>
        <mxCell id="L7yxnm3-P1NIcVD1ScyZ-36" value="" style="edgeStyle=entityRelationEdgeStyle;fontSize=12;html=1;endArrow=none;rounded=0;dashed=1;endFill=0;strokeColor=#76608a;" edge="1" parent="1" source="5eqABleXk-v-GuFvQu0C-15" target="L7yxnm3-P1NIcVD1ScyZ-18">
          <mxGeometry width="100" height="100" relative="1" as="geometry">
            <mxPoint x="90" y="251" as="sourcePoint" />
            <mxPoint x="780" y="91" as="targetPoint" />
          </mxGeometry>
        </mxCell>
        <mxCell id="L7yxnm3-P1NIcVD1ScyZ-38" value="" style="edgeStyle=entityRelationEdgeStyle;fontSize=12;html=1;endArrow=none;rounded=0;dashed=1;endFill=0;strokeColor=#76608a;" edge="1" parent="1" source="5eqABleXk-v-GuFvQu0C-14" target="L7yxnm3-P1NIcVD1ScyZ-37">
          <mxGeometry width="100" height="100" relative="1" as="geometry">
            <mxPoint x="90" y="405" as="sourcePoint" />
            <mxPoint x="760" y="341" as="targetPoint" />
          </mxGeometry>
        </mxCell>
        <mxCell id="L7yxnm3-P1NIcVD1ScyZ-44" value="" style="edgeStyle=entityRelationEdgeStyle;fontSize=12;html=1;endArrow=none;rounded=0;dashed=1;endFill=0;strokeColor=#76608a;" edge="1" parent="1" source="5eqABleXk-v-GuFvQu0C-16" target="L7yxnm3-P1NIcVD1ScyZ-42">
          <mxGeometry width="100" height="100" relative="1" as="geometry">
            <mxPoint x="90" y="405" as="sourcePoint" />
            <mxPoint x="760" y="341" as="targetPoint" />
          </mxGeometry>
        </mxCell>
        <mxCell id="L7yxnm3-P1NIcVD1ScyZ-45" value="" style="edgeStyle=entityRelationEdgeStyle;fontSize=12;html=1;endArrow=none;rounded=0;dashed=1;endFill=0;strokeColor=#76608a;" edge="1" parent="1" source="5eqABleXk-v-GuFvQu0C-17" target="L7yxnm3-P1NIcVD1ScyZ-43">
          <mxGeometry width="100" height="100" relative="1" as="geometry">
            <mxPoint x="90" y="465" as="sourcePoint" />
            <mxPoint x="530" y="371" as="targetPoint" />
          </mxGeometry>
        </mxCell>
        <mxCell id="L7yxnm3-P1NIcVD1ScyZ-49" value="" style="edgeStyle=entityRelationEdgeStyle;fontSize=12;html=1;endArrow=none;rounded=0;dashed=1;endFill=0;strokeColor=#76608a;" edge="1" parent="1" source="5eqABleXk-v-GuFvQu0C-19" target="L7yxnm3-P1NIcVD1ScyZ-46">
          <mxGeometry width="100" height="100" relative="1" as="geometry">
            <mxPoint x="90" y="465" as="sourcePoint" />
            <mxPoint x="530" y="371" as="targetPoint" />
          </mxGeometry>
        </mxCell>
        <mxCell id="L7yxnm3-P1NIcVD1ScyZ-50" value="" style="edgeStyle=entityRelationEdgeStyle;fontSize=12;html=1;endArrow=none;rounded=0;dashed=1;endFill=0;strokeColor=#76608a;" edge="1" parent="1" source="5eqABleXk-v-GuFvQu0C-20" target="L7yxnm3-P1NIcVD1ScyZ-47">
          <mxGeometry width="100" height="100" relative="1" as="geometry">
            <mxPoint x="90" y="495" as="sourcePoint" />
            <mxPoint x="530" y="401" as="targetPoint" />
          </mxGeometry>
        </mxCell>
        <mxCell id="L7yxnm3-P1NIcVD1ScyZ-51" value="" style="edgeStyle=entityRelationEdgeStyle;fontSize=12;html=1;endArrow=none;rounded=0;dashed=1;endFill=0;strokeColor=#76608a;" edge="1" parent="1" source="5eqABleXk-v-GuFvQu0C-18" target="L7yxnm3-P1NIcVD1ScyZ-48">
          <mxGeometry width="100" height="100" relative="1" as="geometry">
            <mxPoint x="90" y="525" as="sourcePoint" />
            <mxPoint x="530" y="431" as="targetPoint" />
          </mxGeometry>
        </mxCell>
        <mxCell id="L7yxnm3-P1NIcVD1ScyZ-78" value="" style="edgeStyle=entityRelationEdgeStyle;fontSize=12;html=1;endArrow=none;rounded=0;exitX=1;exitY=0.5;exitDx=0;exitDy=0;dashed=1;endFill=0;strokeColor=#e84c3b;" edge="1" parent="1" source="5eqABleXk-v-GuFvQu0C-5" target="5eqABleXk-v-GuFvQu0C-60">
          <mxGeometry width="100" height="100" relative="1" as="geometry">
            <mxPoint x="80" y="-139" as="sourcePoint" />
            <mxPoint x="580" y="-189" as="targetPoint" />
          </mxGeometry>
        </mxCell>
        <mxCell id="L7yxnm3-P1NIcVD1ScyZ-79" value="" style="edgeStyle=entityRelationEdgeStyle;fontSize=12;html=1;endArrow=none;rounded=0;dashed=1;endFill=0;strokeColor=#e84c3b;" edge="1" parent="1" source="5eqABleXk-v-GuFvQu0C-9" target="5eqABleXk-v-GuFvQu0C-60">
          <mxGeometry width="100" height="100" relative="1" as="geometry">
            <mxPoint x="80" y="-19" as="sourcePoint" />
            <mxPoint x="840" y="-209" as="targetPoint" />
          </mxGeometry>
        </mxCell>
        <mxCell id="L7yxnm3-P1NIcVD1ScyZ-103" value="" style="edgeStyle=entityRelationEdgeStyle;fontSize=12;html=1;endArrow=none;rounded=0;dashed=1;endFill=0;strokeColor=#76608a;" edge="1" parent="1" source="L7yxnm3-P1NIcVD1ScyZ-82" target="L7yxnm3-P1NIcVD1ScyZ-99">
          <mxGeometry width="100" height="100" relative="1" as="geometry">
            <mxPoint x="30" y="475" as="sourcePoint" />
            <mxPoint x="170" y="215" as="targetPoint" />
          </mxGeometry>
        </mxCell>
        <mxCell id="L7yxnm3-P1NIcVD1ScyZ-110" value="" style="edgeStyle=entityRelationEdgeStyle;fontSize=12;html=1;endArrow=none;rounded=0;dashed=1;endFill=0;strokeColor=#76608a;" edge="1" parent="1" source="L7yxnm3-P1NIcVD1ScyZ-83" target="L7yxnm3-P1NIcVD1ScyZ-100">
          <mxGeometry width="100" height="100" relative="1" as="geometry">
            <mxPoint x="30" y="585" as="sourcePoint" />
            <mxPoint x="390" y="301" as="targetPoint" />
          </mxGeometry>
        </mxCell>
        <mxCell id="L7yxnm3-P1NIcVD1ScyZ-123" value="" style="edgeStyle=entityRelationEdgeStyle;fontSize=12;html=1;endArrow=none;rounded=0;dashed=1;endFill=0;entryX=0.002;entryY=0.771;entryDx=0;entryDy=0;entryPerimeter=0;strokeColor=#6f8367;" edge="1" parent="1" source="5eqABleXk-v-GuFvQu0C-28" target="L7yxnm3-P1NIcVD1ScyZ-11">
          <mxGeometry width="100" height="100" relative="1" as="geometry">
            <mxPoint x="20" y="131" as="sourcePoint" />
            <mxPoint x="730" y="-271" as="targetPoint" />
          </mxGeometry>
        </mxCell>
        <mxCell id="L7yxnm3-P1NIcVD1ScyZ-11" value="Покупатель" style="swimlane;fontStyle=0;childLayout=stackLayout;horizontal=1;startSize=26;horizontalStack=0;resizeParent=1;resizeParentMax=0;resizeLast=0;collapsible=1;marginBottom=0;align=center;fontSize=14;fillColor=#f8cecc;strokeColor=#b85450;" vertex="1" parent="1">
          <mxGeometry x="240" y="-23" width="160" height="206" as="geometry" />
        </mxCell>
        <mxCell id="L7yxnm3-P1NIcVD1ScyZ-37" value="id личного кабинета" style="text;strokeColor=none;fillColor=none;spacingLeft=4;spacingRight=4;overflow=hidden;rotatable=0;points=[[0,0.5],[1,0.5]];portConstraint=eastwest;fontSize=12;whiteSpace=wrap;html=1;" vertex="1" parent="L7yxnm3-P1NIcVD1ScyZ-11">
          <mxGeometry y="26" width="160" height="30" as="geometry" />
        </mxCell>
        <mxCell id="L7yxnm3-P1NIcVD1ScyZ-43" value="ФИО" style="text;strokeColor=none;fillColor=none;spacingLeft=4;spacingRight=4;overflow=hidden;rotatable=0;points=[[0,0.5],[1,0.5]];portConstraint=eastwest;fontSize=12;whiteSpace=wrap;html=1;" vertex="1" parent="L7yxnm3-P1NIcVD1ScyZ-11">
          <mxGeometry y="56" width="160" height="30" as="geometry" />
        </mxCell>
        <mxCell id="L7yxnm3-P1NIcVD1ScyZ-42" value="пол" style="text;strokeColor=none;fillColor=none;spacingLeft=4;spacingRight=4;overflow=hidden;rotatable=0;points=[[0,0.5],[1,0.5]];portConstraint=eastwest;fontSize=12;whiteSpace=wrap;html=1;" vertex="1" parent="L7yxnm3-P1NIcVD1ScyZ-11">
          <mxGeometry y="86" width="160" height="30" as="geometry" />
        </mxCell>
        <mxCell id="L7yxnm3-P1NIcVD1ScyZ-46" value="дата рождения" style="text;strokeColor=none;fillColor=none;spacingLeft=4;spacingRight=4;overflow=hidden;rotatable=0;points=[[0,0.5],[1,0.5]];portConstraint=eastwest;fontSize=12;whiteSpace=wrap;html=1;" vertex="1" parent="L7yxnm3-P1NIcVD1ScyZ-11">
          <mxGeometry y="116" width="160" height="30" as="geometry" />
        </mxCell>
        <mxCell id="L7yxnm3-P1NIcVD1ScyZ-47" value="email" style="text;strokeColor=none;fillColor=none;spacingLeft=4;spacingRight=4;overflow=hidden;rotatable=0;points=[[0,0.5],[1,0.5]];portConstraint=eastwest;fontSize=12;whiteSpace=wrap;html=1;" vertex="1" parent="L7yxnm3-P1NIcVD1ScyZ-11">
          <mxGeometry y="146" width="160" height="30" as="geometry" />
        </mxCell>
        <mxCell id="L7yxnm3-P1NIcVD1ScyZ-48" value="телефон" style="text;strokeColor=none;fillColor=none;spacingLeft=4;spacingRight=4;overflow=hidden;rotatable=0;points=[[0,0.5],[1,0.5]];portConstraint=eastwest;fontSize=12;whiteSpace=wrap;html=1;" vertex="1" parent="L7yxnm3-P1NIcVD1ScyZ-11">
          <mxGeometry y="176" width="160" height="30" as="geometry" />
        </mxCell>
        <mxCell id="L7yxnm3-P1NIcVD1ScyZ-39" value="" style="edgeStyle=entityRelationEdgeStyle;fontSize=12;html=1;endArrow=ERoneToMany;rounded=0;" edge="1" parent="1" source="L7yxnm3-P1NIcVD1ScyZ-37" target="L7yxnm3-P1NIcVD1ScyZ-17">
          <mxGeometry width="100" height="100" relative="1" as="geometry">
            <mxPoint x="400" y="48" as="sourcePoint" />
            <mxPoint x="660" y="-45" as="targetPoint" />
          </mxGeometry>
        </mxCell>
        <mxCell id="L7yxnm3-P1NIcVD1ScyZ-126" value="" style="edgeStyle=entityRelationEdgeStyle;fontSize=12;html=1;endArrow=none;rounded=0;dashed=1;endFill=0;strokeColor=#76608a;" edge="1" parent="1" source="L7yxnm3-P1NIcVD1ScyZ-84" target="L7yxnm3-P1NIcVD1ScyZ-115">
          <mxGeometry width="100" height="100" relative="1" as="geometry">
            <mxPoint x="30" y="615" as="sourcePoint" />
            <mxPoint x="670" y="371" as="targetPoint" />
          </mxGeometry>
        </mxCell>
        <mxCell id="L7yxnm3-P1NIcVD1ScyZ-130" value="" style="edgeStyle=entityRelationEdgeStyle;fontSize=12;html=1;endArrow=none;rounded=0;dashed=1;endFill=0;strokeColor=#76608a;" edge="1" parent="1" source="L7yxnm3-P1NIcVD1ScyZ-91" target="L7yxnm3-P1NIcVD1ScyZ-18">
          <mxGeometry width="100" height="100" relative="1" as="geometry">
            <mxPoint x="30" y="645" as="sourcePoint" />
            <mxPoint x="210" y="-30" as="targetPoint" />
          </mxGeometry>
        </mxCell>
        <mxCell id="L7yxnm3-P1NIcVD1ScyZ-131" value="" style="edgeStyle=entityRelationEdgeStyle;fontSize=12;html=1;endArrow=none;rounded=0;dashed=1;endFill=0;strokeColor=#76608a;exitX=1;exitY=0.5;exitDx=0;exitDy=0;" edge="1" parent="1" source="L7yxnm3-P1NIcVD1ScyZ-93" target="L7yxnm3-P1NIcVD1ScyZ-96">
          <mxGeometry width="100" height="100" relative="1" as="geometry">
            <mxPoint x="30" y="645" as="sourcePoint" />
            <mxPoint x="400" y="351" as="targetPoint" />
          </mxGeometry>
        </mxCell>
        <mxCell id="L7yxnm3-P1NIcVD1ScyZ-132" value="" style="edgeStyle=entityRelationEdgeStyle;fontSize=12;html=1;endArrow=none;rounded=0;dashed=1;endFill=0;strokeColor=#76608a;" edge="1" parent="1" source="L7yxnm3-P1NIcVD1ScyZ-94" target="L7yxnm3-P1NIcVD1ScyZ-97">
          <mxGeometry width="100" height="100" relative="1" as="geometry">
            <mxPoint x="30" y="705" as="sourcePoint" />
            <mxPoint x="400" y="381" as="targetPoint" />
          </mxGeometry>
        </mxCell>
      </root>
    </mxGraphModel>
  </diagram>
</mxfile>
